<svg width="24" height="24" viewBox="0 0 24 24" fill="none" xmlns="http://www.w3.org/2000/svg">
<path d="M21.5 17.6266C21.5 19.9236 19.6379 21.7857 17.341 21.7857C15.044 21.7857 13.1819 19.9236 13.1819 17.6266C13.1819 15.3296 15.044 13.4676 17.341 13.4676C19.6379 13.4676 21.5 15.3296 21.5 17.6266ZM10.583 2.86415C10.8469 2.37862 11.5438 2.37862 11.8076 2.86415L15.5535 9.75771C15.8058 10.2221 15.4697 10.7873 14.9412 10.7873H7.44945C6.92097 10.7873 6.58482 10.2221 6.83714 9.75771L10.583 2.86415ZM2.5 14.6012C2.5 14.2163 2.812 13.9043 3.19687 13.9043H9.24766C9.63253 13.9043 9.94452 14.2163 9.94452 14.6012V20.652C9.94452 21.0368 9.63253 21.3488 9.24766 21.3488H3.19687C2.812 21.3488 2.5 21.0368 2.5 20.652V14.6012Z" stroke="#858585"/>
</svg>
