<svg width="24" height="24" viewBox="0 0 24 24" fill="none" xmlns="http://www.w3.org/2000/svg">
<path d="M3 14C3 13.4477 3.44772 13 4 13H10C10.5523 13 11 13.4477 11 14V20C11 20.5523 10.5523 21 10 21H4C3.44772 21 3 20.5523 3 20V14Z" stroke="#858585"/>
<path d="M11 14C11 13.4477 11.4477 13 12 13H18C18.5523 13 19 13.4477 19 14V20C19 20.5523 18.5523 21 18 21H12C11.4477 21 11 20.5523 11 20V14Z" stroke="#858585"/>
<path d="M3 6C3 5.44772 3.44772 5 4 5H10C10.5523 5 11 5.44772 11 6V12C11 12.5523 10.5523 13 10 13H4C3.44772 13 3 12.5523 3 12V6Z" stroke="#858585"/>
<rect x="14" y="3" width="7" height="7" rx="3.5" stroke="#858585"/>
</svg>
