<svg width="24" height="24" viewBox="0 0 24 24" fill="none" xmlns="http://www.w3.org/2000/svg">
<path d="M5.66287 20.5687L3.83713 22.2357C3.5162 22.5287 3 22.301 3 21.8664V2.5C3 2.22386 3.22386 2 3.5 2H20.5C20.7761 2 21 2.22386 21 2.5V21.8664C21 22.301 20.4838 22.5287 20.1629 22.2357L18.3371 20.5687C18.1462 20.3943 17.8538 20.3943 17.6629 20.5687L15.3371 22.6922C15.1462 22.8665 14.8538 22.8665 14.6629 22.6922L12.3371 20.5687C12.1462 20.3943 11.8538 20.3943 11.6629 20.5687L9.33713 22.6922C9.14619 22.8665 8.85381 22.8665 8.66287 22.6922L6.33713 20.5687C6.14619 20.3943 5.85381 20.3943 5.66287 20.5687Z" stroke="#858585"/>
<path d="M7 7H17" stroke="#858585" stroke-linecap="round"/>
<path d="M7 11H17" stroke="#858585" stroke-linecap="round"/>
<path d="M7 15H17" stroke="#858585" stroke-linecap="round"/>
</svg>
